<svg width="64" height="64" viewBox="0 0 64 64" fill="none" xmlns="http://www.w3.org/2000/svg">
<path d="M8 38C11.3137 38 14 35.3137 14 32C14 28.6863 11.3137 26 8 26C4.68629 26 2 28.6863 2 32C2 35.3137 4.68629 38 8 38Z" stroke="#2B215F" stroke-width="2" stroke-miterlimit="10" stroke-linecap="square"/>
<path d="M32 38C35.3137 38 38 35.3137 38 32C38 28.6863 35.3137 26 32 26C28.6863 26 26 28.6863 26 32C26 35.3137 28.6863 38 32 38Z" stroke="#2B215F" stroke-width="2" stroke-miterlimit="10" stroke-linecap="square"/>
<path d="M56 38C59.3137 38 62 35.3137 62 32C62 28.6863 59.3137 26 56 26C52.6863 26 50 28.6863 50 32C50 35.3137 52.6863 38 56 38Z" stroke="#2B215F" stroke-width="2" stroke-miterlimit="10" stroke-linecap="square"/>
</svg>
