<svg width="244" height="109" viewBox="0 0 244 109" fill="none" xmlns="http://www.w3.org/2000/svg">
<path d="M223.668 70.5135H219.986C221.069 67.0481 221.394 63.3662 220.852 59.5218C218.957 45.4978 206.015 35.6431 191.99 37.5924C186.25 38.3504 181.268 41.0036 177.423 44.7397C171.088 29.0372 154.68 19.0201 137.135 21.4567C128.742 22.5938 121.431 26.384 115.8 31.8529C106.54 11.3313 84.6088 -1.50145 61.2156 1.6932C32.624 5.59176 12.5883 31.907 16.4871 60.4964C16.9745 64.0159 17.7867 67.373 18.9239 70.6218C9.50167 71.5965 1 78.094 1 87.6238V88.2195C1 98.5615 9.55582 108.416 21.3607 108.416H223.614C233.957 108.416 243 98.5615 243 88.2195V87.6238C243.054 77.2819 234.011 70.5135 223.668 70.5135Z" fill="white" stroke="#29225C"/>
</svg>
