<svg width="488" height="579" viewBox="0 0 488 579" fill="none" xmlns="http://www.w3.org/2000/svg">
<g clip-path="url(#clip0)">
<path d="M179.813 530.759C179.019 530.553 178.358 530.194 177.831 529.681L169.929 521.983C169.337 521.358 169.056 520.626 169.238 519.919C169.421 519.213 170.023 518.709 170.843 518.45L185.656 514.368C187.076 513.982 188.842 514.439 189.895 515.465L197.797 523.163C198.389 523.788 198.671 524.52 198.488 525.227C198.305 525.933 197.704 526.437 196.883 526.696L182.07 530.778C181.36 530.971 180.52 530.942 179.813 530.759ZM171.093 520.399C171.093 520.399 171.158 520.51 171.312 520.644L179.214 528.343C179.741 528.856 180.977 529.176 181.687 528.982L196.5 524.9C196.699 524.858 196.722 524.769 196.81 524.792C196.81 524.792 196.745 524.681 196.591 524.547L188.689 516.849C188.163 516.336 186.926 516.016 186.217 516.209L171.404 520.291C171.204 520.334 171.093 520.399 171.093 520.399Z" fill="white" stroke="#29225C"/>
<path d="M203.959 511.001L185.287 516.157C183.956 516.567 182.013 516.064 181.048 515.06L171.127 505.332C170.754 504.953 170.581 504.531 170.584 504.155L170.075 520.324C169.984 520.678 170.18 521.011 170.553 521.39L178.455 529.088C179.201 529.847 180.702 530.235 181.81 529.957L196.624 525.875C197.022 525.79 197.356 525.593 197.536 525.263L205.181 510.281C204.936 510.5 204.58 510.785 203.959 511.001Z" fill="white" stroke="#29225C"/>
<path d="M203.959 511.001L185.287 516.157C183.956 516.567 182.014 516.064 181.048 515.061L171.128 505.333C170.162 504.329 170.437 503.269 171.768 502.86L190.439 497.703C191.77 497.294 193.713 497.797 194.678 498.8L204.599 508.528C205.564 509.532 205.29 510.592 203.959 511.001Z" fill="white" stroke="#29225C"/>
<path d="M204.625 510.609C204.603 510.698 204.691 510.72 204.691 510.72C204.668 510.809 204.534 510.962 204.135 511.048L185.463 516.204C184.865 516.332 184.113 516.326 183.429 516.055C182.523 515.915 181.686 515.509 181.093 514.885L171.173 505.157C170.8 504.778 170.626 504.356 170.63 503.98L170.489 507.322C170.62 507.544 170.774 507.678 170.928 507.812L180.848 517.541C181.441 518.165 182.366 518.593 183.25 518.821C184.133 519.05 185.15 519.125 185.971 518.866L202.549 514.821L205.161 509.994C204.982 510.325 204.825 510.567 204.625 510.609Z" fill="#EFEFF5"/>
<path d="M182.803 517.024C181.92 516.795 180.994 516.367 180.402 515.743L170.481 506.015C169.735 505.256 169.476 504.436 169.682 503.641C169.888 502.846 170.512 502.254 171.532 501.952L190.204 496.796C191.823 496.367 194.119 496.961 195.326 498.121L205.247 507.849C206.016 508.519 206.251 509.428 206.046 510.223C205.84 511.018 205.216 511.61 204.196 511.912L185.524 517.068C184.726 517.239 183.774 517.275 182.803 517.024ZM192.468 498.607C191.85 498.447 191.209 498.375 190.699 498.526L172.027 503.682C171.628 503.767 171.494 503.921 171.471 504.009C171.448 504.098 171.491 504.297 171.799 504.565L181.719 514.293C182.465 515.052 184.055 515.463 185.075 515.162L203.747 510.005C204.146 509.92 204.28 509.766 204.302 509.678C204.325 509.59 204.283 509.39 203.975 509.122L194.055 499.394C193.659 499.103 193.086 498.766 192.468 498.607Z" fill="#29225C"/>
<path d="M170.699 503.715C170.699 503.715 170.611 503.692 170.699 503.715C170.434 503.647 170.326 503.336 170.372 503.159L176.49 488.253C176.559 487.988 176.846 487.969 177.023 488.014C177.288 488.083 177.308 488.371 177.262 488.547L171.144 503.453C171.098 503.63 170.876 503.761 170.699 503.715Z" fill="#29225C"/>
<path d="M183.495 516.165C183.495 516.165 183.407 516.143 183.495 516.165C183.23 516.097 183.1 515.875 183.168 515.61L187.863 498.922C187.932 498.657 188.154 498.526 188.419 498.594C188.684 498.663 188.815 498.885 188.746 499.15L184.051 515.838C183.894 516.08 183.672 516.211 183.495 516.165Z" fill="#29225C"/>
<path d="M205.185 509.905C205.008 509.859 204.877 509.637 204.835 509.437L206.646 493.699C206.714 493.434 206.848 493.281 207.113 493.349C207.378 493.418 207.532 493.552 207.463 493.817L205.652 509.555C205.672 509.843 205.45 509.974 205.185 509.905Z" fill="#29225C"/>
<path d="M192.519 497.678C192.254 497.609 192.123 497.387 192.192 497.122L195.76 482.969C195.828 482.704 196.051 482.573 196.316 482.642C196.581 482.71 196.711 482.932 196.643 483.197L193.075 497.35C193.006 497.615 192.784 497.746 192.519 497.678Z" fill="#29225C"/>
<path d="M187.725 499.451C186.931 499.246 186.27 498.886 185.743 498.373L177.118 489.828C176.591 489.315 176.287 488.671 176.447 488.053C176.607 487.435 177.097 486.996 177.895 486.826L194.239 482.292C195.569 481.882 197.424 482.362 198.478 483.389L207.102 491.933C207.629 492.447 207.934 493.091 207.774 493.709C207.614 494.327 207.123 494.765 206.325 494.936L189.982 499.47C189.272 499.663 188.432 499.634 187.725 499.451ZM196.133 483.347C195.514 483.187 194.962 483.138 194.452 483.289L178.108 487.823C177.709 487.908 177.464 488.128 177.418 488.304C177.373 488.481 177.481 488.791 177.788 489.059L186.413 497.604C187.159 498.363 188.572 498.728 189.592 498.427L205.936 493.893C206.335 493.808 206.58 493.588 206.626 493.412C206.671 493.235 206.563 492.924 206.256 492.656L197.631 484.112C197.235 483.821 196.751 483.507 196.133 483.347Z" fill="#29225C"/>
<path d="M177.023 488.014C176.935 487.991 176.935 487.991 176.869 487.88L175.037 438.88C175.06 438.791 175.083 438.703 175.171 438.726C175.26 438.749 175.348 438.772 175.325 438.86L177.157 487.86C177.222 487.971 177.111 488.036 177.023 488.014Z" fill="#29225C"/>
<path d="M207.225 493.285C207.136 493.262 207.071 493.151 207.094 493.062L230.982 453.544C231.004 453.456 231.093 453.479 231.181 453.502C231.269 453.525 231.247 453.613 231.224 453.701L207.336 493.219C207.401 493.33 207.313 493.307 207.225 493.285Z" fill="#29225C"/>
<path d="M196.382 482.753C196.293 482.73 196.228 482.619 196.251 482.53L203.883 453.034C203.906 452.946 204.017 452.88 204.105 452.903C204.194 452.926 204.259 453.037 204.236 453.125L196.604 482.622C196.493 482.687 196.47 482.775 196.382 482.753Z" fill="#29225C"/>
<path d="M188.216 499.013C188.127 498.99 188.062 498.879 188.085 498.79L200.287 451.632C200.31 451.543 200.421 451.478 200.51 451.501C200.598 451.524 200.663 451.635 200.641 451.723L188.438 498.882C188.392 499.058 188.304 499.036 188.216 499.013Z" fill="#29225C"/>
<path d="M187.715 484.561C187.627 484.538 187.562 484.427 187.562 484.427L190.677 447.261C190.7 447.172 190.723 447.084 190.811 447.107C190.899 447.13 190.988 447.153 190.965 447.241L187.849 484.407C187.826 484.496 187.804 484.584 187.715 484.561Z" fill="#29225C"/>
<path d="M201.875 487.378C201.787 487.355 201.721 487.244 201.744 487.156L217.255 451.972C217.278 451.883 217.389 451.818 217.455 451.929C217.543 451.952 217.608 452.063 217.497 452.129L201.986 487.312C202.051 487.424 201.963 487.401 201.875 487.378Z" fill="#29225C"/>
<path d="M197.303 497.031C197.215 497.008 197.15 496.897 197.173 496.808L213.2 452.712C213.222 452.624 213.334 452.559 213.422 452.581C213.51 452.604 213.576 452.715 213.553 452.804L197.526 496.9C197.503 496.988 197.392 497.054 197.303 497.031Z" fill="#29225C"/>
<path d="M181.644 493.826C181.555 493.803 181.49 493.692 181.513 493.603L187.795 445.29C187.818 445.202 187.929 445.136 188.017 445.159C188.106 445.182 188.171 445.293 188.148 445.381L181.866 493.695C181.843 493.783 181.82 493.872 181.644 493.826C181.732 493.849 181.732 493.849 181.644 493.826Z" fill="#29225C"/>
<path opacity="0.1" d="M171.246 504.516C171.622 504.519 178.162 510.923 178.071 511.276C177.98 511.629 173.985 507.769 173.196 506.811C172.427 506.141 170.693 504.467 171.246 504.516Z" fill="#F2F2F2"/>
<path d="M229.554 436.12C219.195 425.902 199.325 420.76 185.31 424.672C171.916 428.367 168.621 438.916 177.302 448.7C179.064 446.989 181.487 445.637 184.724 444.779C196.1 441.598 212.085 445.734 220.49 454.033C222.817 456.331 224.368 458.712 225.079 461.063C237.239 456.671 239.386 445.826 229.554 436.12Z" fill="url(#paint0_linear)"/>
<path d="M222.927 461.73C208.912 465.642 189.042 460.5 178.683 450.282C175.237 446.846 173.231 443.312 172.66 440.055L174.319 456.22C174.582 459.209 176.193 462.452 179.265 465.508C187.671 473.808 203.656 477.944 215.032 474.763C219.289 473.603 222.271 471.548 223.863 469.039L233.154 455.708C230.987 458.256 227.606 460.397 222.927 461.73Z" fill="white" stroke="#29225C"/>
<path d="M315.066 59.3926C317.832 56.716 320.768 54.8374 323.766 53.4461C335.2 54.0489 351.192 59.9772 363.606 73.1772C355.779 72.4713 341.951 69.8353 333.809 72.534C309.072 80.7382 296.323 86.6735 296.323 86.6735C296.323 86.6735 304.36 69.8139 315.066 59.3926Z" fill="#EFEFF5" stroke="#29225C"/>
<path d="M296.323 86.6744C296.323 86.6744 310.563 74.2466 330.878 71.1169C342.353 69.3749 353.39 69.6869 364.842 73.498C397.94 84.3238 413.516 108.612 421.133 123.963C357.888 71.6045 296.323 86.6744 296.323 86.6744Z" fill="white" stroke="#29225C"/>
<path d="M445.689 237.355C433.473 124.705 296.323 86.6731 296.323 86.6731C296.323 86.6731 361.842 64.3345 421.133 123.962C449.024 152.002 452.223 196.08 445.852 236.361C445.872 236.649 445.78 237.002 445.689 237.355Z" fill="#EFEFF5" stroke="#29225C"/>
<path d="M296.323 86.6738C296.323 86.6738 444.423 124.995 445.689 237.356C446.714 322.612 361.499 402.137 291.326 438.819C341.137 408.364 393.565 360.872 405.103 292.246C428.405 154.489 296.323 86.6738 296.323 86.6738Z" fill="white" stroke="#29225C"/>
<path d="M296.323 86.6738C296.323 86.6738 434.999 149.034 410.35 286.537C394.21 376.586 323.512 434.238 248.377 455.502C284.626 427.568 344.444 369.362 359.91 280.458C380.501 163.011 296.323 86.6738 296.323 86.6738Z" fill="#EFEFF5" stroke="#29225C"/>
<path d="M296.323 86.6738C296.323 86.6738 386.792 153.992 364.137 283.06C345.614 388.51 274.973 471.429 220.711 459.367C243.013 427.071 285.643 357.728 302.864 278.795C326.66 169.715 296.323 86.6738 296.323 86.6738Z" fill="white" stroke="#29225C"/>
<path d="M293.165 53.7249C292.045 50.043 290.388 46.9761 288.441 44.3051C278.15 39.2866 261.29 36.7143 244.031 42.2364C251.218 45.4151 264.589 49.8173 270.401 56.1264C288.054 75.299 296.323 86.6729 296.323 86.6729C296.323 86.6729 297.472 68.031 293.165 53.7249Z" fill="#EFEFF5" stroke="#29225C"/>
<path d="M296.323 86.6734C296.323 86.6734 289.898 68.8985 273.651 56.3085C264.461 49.2193 254.657 44.1385 242.795 41.917C208.599 35.3302 183.198 49.0159 169.091 58.7455C249.794 43.6339 296.323 86.6734 296.323 86.6734Z" fill="white" stroke="#29225C"/>
<path d="M92.9481 145.063C92.8416 145.233 93.0831 145.34 93.2 145.176C142.38 76.3742 232.29 77.9254 273.989 82.9572C280.825 83.7821 284.498 76.2596 278.712 72.5269C258.284 59.3493 220.688 43.8059 169.091 58.7448C131.107 69.7365 106.932 106.719 92.9646 145.029C92.9599 145.042 92.9554 145.051 92.9481 145.063Z" fill="#EFEFF5" stroke="#29225C"/>
<path d="M288.441 44.3066C294.793 65.643 296.323 86.6744 296.323 86.6744C296.323 86.6744 306.993 69.8365 323.766 53.447C323.766 53.447 319.434 50.159 306.629 46.8456C294.442 43.6922 288.441 44.3066 288.441 44.3066Z" fill="white" stroke="#29225C"/>
<path d="M296.323 86.6729C296.323 86.6729 148.224 48.3518 92.6176 145.997C50.3695 220.056 86.3182 330.932 129.892 397.046C101.105 346.254 78.291 279.293 101.486 213.684C147.926 81.9129 296.323 86.6729 296.323 86.6729Z" fill="white" stroke="#29225C"/>
<path d="M296.324 86.6735C296.324 86.6735 144.806 73.945 99.6682 206.147C70.1055 292.722 103.968 377.43 159.359 432.468C141.208 390.458 117.129 310.544 146.726 225.296C185.685 112.602 296.324 86.6735 296.324 86.6735Z" fill="#EFEFF5" stroke="#29225C"/>
<path d="M296.323 86.6741C296.323 86.6741 184.557 101.663 141.767 225.521C106.818 326.721 128.375 433.497 181.743 449.379C177.904 410.319 174.259 329.001 197.484 251.622C229.516 144.579 296.323 86.6741 296.323 86.6741Z" fill="white" stroke="#29225C"/>
<path d="M305.931 279.682C324.912 191.654 307.062 120.162 299.415 95.7193C297.999 91.1909 292.666 89.811 289.231 93.0838C270.689 110.747 220.407 164.595 194.328 250.71C171.611 325.778 175.712 404.943 180.129 445.411C180.373 447.65 181.689 449.632 183.688 450.669C188.334 453.081 193.016 455.114 197.745 456.722C198.605 457.039 199.4 457.244 200.26 457.561C201.143 457.79 201.961 457.907 202.867 458.047C207.805 458.939 212.953 459.506 218.19 459.615C220.389 459.66 222.437 458.579 223.713 456.788C247.349 423.616 289.287 356.389 305.931 279.682Z" fill="#EFEFF5" stroke="#29225C"/>
<path d="M312.248 81.9366C318.7 88.3174 316.872 95.3824 308.135 97.8328C299.397 100.283 287.034 97.0841 280.582 90.7033C274.129 84.3225 275.957 77.2575 284.695 74.8071C293.432 72.3567 305.796 75.5558 312.248 81.9366Z" fill="white" stroke="#29225C"/>
<g opacity="0.3">
<path opacity="0.3" d="M293.924 95.9465C293.394 95.8094 292.776 95.6494 292.269 95.424C292.181 95.4011 292.181 95.4011 292.203 95.3128C292.226 95.2245 292.226 95.2245 292.315 95.2474C293.44 95.6327 294.588 95.9298 295.759 96.1386C295.847 96.1614 295.847 96.1614 295.824 96.2497C295.801 96.338 295.801 96.338 295.713 96.3152C295.072 96.2435 294.542 96.1064 293.924 95.9465ZM288.916 94.1796C287.837 93.6176 286.757 93.0556 285.789 92.4281C285.7 92.4052 285.723 92.3169 285.723 92.3169C285.746 92.2286 285.834 92.2515 285.834 92.2515C286.803 92.8789 287.882 93.4409 288.962 94.0029C288.962 94.0029 289.027 94.1141 288.916 94.1796ZM299.249 96.8531C299.249 96.8531 299.16 96.8303 299.249 96.8531C299.183 96.742 299.206 96.6537 299.294 96.6765C300.511 96.7086 301.727 96.7408 302.879 96.6617C302.967 96.6846 302.967 96.6846 302.944 96.7729C302.921 96.8612 302.921 96.8612 302.833 96.8383C301.682 96.9174 300.465 96.8853 299.249 96.8531ZM282.975 90.1925C282.975 90.1925 282.887 90.1696 282.975 90.1925C281.987 89.2772 281.287 88.3422 280.698 87.3417L280.72 87.2534L280.809 87.2763C281.31 88.2539 282.121 89.1234 283.021 90.0158C283.109 90.0387 283.086 90.127 282.975 90.1925ZM306.378 96.248C306.289 96.2251 306.312 96.1368 306.378 96.248C306.312 96.1368 306.335 96.0485 306.424 96.0714C307.643 95.7274 308.797 95.2723 309.71 94.6603L309.798 94.6831L309.775 94.7714C308.775 95.3606 307.709 95.8386 306.378 96.248ZM279.685 83.9704C279.685 83.9704 279.597 83.9476 279.685 83.9704C279.58 83.2837 279.652 82.6426 279.812 82.0245C279.949 81.4946 280.197 80.8993 280.511 80.4151C280.534 80.3268 280.622 80.3496 280.622 80.3496C280.711 80.3725 280.688 80.4608 280.688 80.4608C280.374 80.945 280.149 81.452 279.989 82.0702C279.829 82.6883 279.78 83.2411 279.819 83.8166C279.797 83.905 279.774 83.9933 279.685 83.9704ZM312.184 92.3796C312.184 92.3796 312.207 92.2913 312.184 92.3796C312.096 92.3567 312.119 92.2684 312.119 92.2684C312.432 91.7843 312.681 91.1889 312.818 90.6591C312.955 90.1292 313.027 89.4881 312.987 88.9126C313.01 88.8243 313.01 88.8243 313.098 88.8471C313.187 88.87 313.187 88.87 313.164 88.9583C313.18 89.6222 313.132 90.1749 312.972 90.7931C312.857 91.2346 312.632 91.7416 312.184 92.3796C312.295 92.3141 312.273 92.4024 312.184 92.3796ZM283.097 78.069C283.097 78.069 283.009 78.0461 283.097 78.069C283.031 77.9578 283.031 77.9578 283.054 77.8695C283.966 77.2575 285.121 76.8024 286.34 76.4584L286.429 76.4812L286.406 76.5695C285.163 77.0018 284.097 77.4798 283.097 78.069ZM311.975 85.5412C311.386 84.5408 310.685 83.6058 309.697 82.6905C309.697 82.6905 309.632 82.5794 309.72 82.6022C309.72 82.6022 309.831 82.5368 309.809 82.6251C310.708 83.5175 311.497 84.4753 311.998 85.4529C312.197 85.4103 312.174 85.4986 311.975 85.5412C312.063 85.5641 312.063 85.5641 311.975 85.5412ZM289.928 76.0675C289.84 76.0446 289.84 76.0446 289.928 76.0675C289.862 75.9563 289.885 75.868 289.974 75.8909C291.125 75.8118 292.364 75.7557 293.558 75.8761C293.646 75.8989 293.646 75.8989 293.623 75.9873C293.601 76.0756 293.601 76.0756 293.512 76.0527C292.318 75.9323 291.079 75.9885 289.928 76.0675ZM306.972 80.4777C306.004 79.8503 304.947 79.2 303.845 78.7263C303.756 78.7034 303.779 78.6151 303.779 78.6151C303.802 78.5268 303.89 78.5497 303.89 78.5497C304.97 79.1117 306.049 79.6737 307.018 80.3011C307.106 80.324 307.106 80.324 306.972 80.4777C307.083 80.4123 306.972 80.4777 306.972 80.4777ZM297.071 76.5023C296.982 76.4795 296.982 76.4795 297.071 76.5023C297.005 76.3912 297.028 76.3029 297.116 76.3257C297.735 76.4857 298.287 76.5345 298.905 76.6944C299.435 76.8315 300.053 76.9915 300.56 77.2169C300.649 77.2398 300.649 77.2398 300.626 77.3281C300.603 77.4164 300.603 77.4164 300.515 77.3935C299.985 77.2564 299.39 77.0082 298.86 76.8711C298.242 76.7111 297.623 76.5511 297.071 76.5023Z" fill="black"/>
</g>
<path opacity="0.3" d="M235.911 222.555C221.773 262.994 206.65 310.151 198.993 307.698C191.335 305.246 193.815 264.711 213.442 213.255C228.683 173.29 253.999 137.722 261.744 140.197C269.402 142.65 254.468 169.409 235.911 222.555Z" fill="#EFEFF5"/>
<path opacity="0.1" d="M325.492 196.077C322.225 162.819 314.633 138.994 318.053 137.429C321.163 135.972 334.786 160.886 337.766 196.709C340.016 224.428 336.436 253.559 331.142 254.357C325.87 255.066 328.906 230.222 325.492 196.077Z" fill="white"/>
<path opacity="0.3" d="M364.384 183.056C355.83 157.851 344.771 141.233 347.799 139.001C350.558 137.077 367.729 153.015 376.222 180.277C382.907 201.417 384.017 225.166 379.089 227.095C374.227 229.134 373.155 208.881 364.384 183.056Z" fill="#EFEFF5"/>
<path opacity="0.1" d="M381.22 148.215C369.892 134.825 359.269 127.082 360.501 125.234C361.599 123.539 375.354 129.737 387.226 144.304C396.447 155.641 403.302 169.57 400.985 171.609C398.732 173.758 392.833 161.961 381.22 148.215Z" fill="white"/>
<path opacity="0.1" d="M362.622 79.8946C351.848 77.1068 343.557 76.3748 343.546 74.9588C343.513 73.631 353.036 72.5145 364.579 75.9724C378.837 80.227 385.577 86.588 384.704 87.7756C383.965 88.8094 377.9 83.8478 362.622 79.8946Z" fill="white"/>
<path opacity="0.3" d="M173.927 132.55C153.673 147.096 136.387 169.477 126.821 170.394C120.356 170.983 131.01 148.016 162.996 124.539C186.391 107.319 213.719 101.481 211.779 106.068C210.266 109.728 200.634 113.454 173.927 132.55Z" fill="#EFEFF5"/>
<path opacity="0.1" d="M157.414 103.874C140.379 111.809 124.314 125.461 117.237 125.138C112.482 124.944 123.931 110.192 150.853 97.1825C170.556 87.6758 191.231 86.4298 189.038 89.4429C187.381 91.8409 179.824 93.3718 157.414 103.874Z" fill="white"/>
<path opacity="0.1" d="M249.032 50.2203C239.524 46.9119 228.044 46.4857 225.502 43.5664C223.748 41.605 233.853 39.6968 249.121 44.7783C260.243 48.4097 268.632 56.0455 266.614 56.5599C265.041 56.8124 261.563 54.5935 249.032 50.2203Z" fill="white"/>
<path opacity="0.2" d="M189.514 174.274C171.044 203.416 156.296 242.566 150.836 239.269C145.376 235.972 153.318 203.823 178.113 166.99C197.376 138.43 225.239 115.959 230.699 119.256C236.159 122.553 213.857 135.91 189.514 174.274Z" fill="white"/>
</g>
<line x1="14.8506" y1="230.178" x2="62.2853" y2="230.178" stroke="#DFDFEA"/>
<line x1="23.9736" y1="249.543" x2="56.8131" y2="249.543" stroke="#DFDFEA"/>
<line x1="145.683" y1="518.346" x2="161.19" y2="518.346" stroke="#DFDFEA"/>
<line x1="5.72949" y1="239.859" x2="53.1642" y2="239.859" stroke="#DFDFEA"/>
<line x1="151.155" y1="522.908" x2="161.19" y2="522.908" stroke="#DFDFEA"/>
<line x1="154.001" y1="513.5" x2="161.001" y2="513.5" stroke="#DFDFEA"/>
<defs>
<linearGradient id="paint0_linear" x1="173.591" y1="431.913" x2="236.195" y2="448.112" gradientUnits="userSpaceOnUse">
<stop stop-color="#545454"/>
<stop offset="1" stop-color="#7D7D7D"/>
</linearGradient>
<clipPath id="clip0">
<rect x="125.589" width="374.005" height="500.801" transform="rotate(14.5073 125.589 0)" fill="white"/>
</clipPath>
</defs>
</svg>
