<svg width="220" height="98" viewBox="0 0 220 98" fill="none" xmlns="http://www.w3.org/2000/svg">
<path d="M18.4148 62.83H21.7319C20.7563 59.7209 20.4636 56.4174 20.9514 52.9682C22.6587 40.386 34.3173 31.5444 46.9514 33.2933C52.1221 33.9734 56.6099 36.3538 60.0733 39.7059C65.7807 25.6176 80.5611 16.6303 96.366 18.8164C103.927 19.8366 110.512 23.2372 115.585 28.1438C123.927 9.7319 143.683 -1.7816 164.756 1.08463C190.512 4.5824 208.561 28.1924 205.049 53.8427C204.61 57.0004 203.878 60.0124 202.854 62.9272C211.341 63.8016 219 69.6312 219 78.1813V78.7157C219 87.9945 211.293 96.8361 200.659 96.8361H18.4636C9.14655 96.8361 1.00023 87.9945 1.00023 78.7157V78.1813C0.951447 68.9025 9.09778 62.83 18.4148 62.83Z" fill="white" stroke="#29225C"/>
</svg>
